<svg
   width="76.990646mm"
   height="54.215435mm"
   viewBox="0 0 76.990646 54.215435"
   version="1.1"
   id="svg2751"
   xml:space="preserve"
   xmlns:inkscape="http://www.inkscape.org/namespaces/inkscape"
   xmlns:sodipodi="http://sodipodi.sourceforge.net/DTD/sodipodi-0.dtd"
   xmlns:xlink="http://www.w3.org/1999/xlink"
   xmlns="http://www.w3.org/2000/svg"
   xmlns:svg="http://www.w3.org/2000/svg"><sodipodi:namedview
     id="namedview2753"
     pagecolor="#ffffff"
     bordercolor="#999999"
     borderopacity="1"
     inkscape:showpageshadow="0"
     inkscape:pageopacity="0"
     inkscape:pagecheckerboard="0"
     inkscape:deskcolor="#d1d1d1"
     inkscape:document-units="mm"
     showgrid="false" /><defs
     id="defs2748"><linearGradient
       inkscape:collect="always"
       id="linearGradient8261"><stop
         style="stop-color:#000000;stop-opacity:1;"
         offset="0"
         id="stop8257" /><stop
         style="stop-color:#000000;stop-opacity:0;"
         offset="1"
         id="stop8259" /></linearGradient><linearGradient
       inkscape:collect="always"
       id="linearGradient7378"><stop
         style="stop-color:#000000;stop-opacity:1;"
         offset="0"
         id="stop7374" /><stop
         style="stop-color:#000000;stop-opacity:0;"
         offset="1"
         id="stop7376" /></linearGradient><linearGradient
       id="linearGradient7362"
       inkscape:swatch="solid"><stop
         style="stop-color:#000000;stop-opacity:1;"
         offset="0"
         id="stop7360" /></linearGradient><linearGradient
       inkscape:collect="always"
       xlink:href="#linearGradient7378"
       id="linearGradient7380"
       x1="75.118355"
       y1="96.067947"
       x2="114.53464"
       y2="96.067947"
       gradientUnits="userSpaceOnUse" /><linearGradient
       inkscape:collect="always"
       xlink:href="#linearGradient7378"
       id="linearGradient7382"
       x1="75.118355"
       y1="100.6389"
       x2="114.53464"
       y2="100.6389"
       gradientUnits="userSpaceOnUse" /><linearGradient
       inkscape:collect="always"
       xlink:href="#linearGradient7378"
       id="linearGradient7384"
       x1="75.118355"
       y1="105.20987"
       x2="114.53464"
       y2="105.20987"
       gradientUnits="userSpaceOnUse" /><linearGradient
       inkscape:collect="always"
       xlink:href="#linearGradient7378"
       id="linearGradient7386"
       x1="75.118355"
       y1="88.321991"
       x2="100.26961"
       y2="88.321991"
       gradientUnits="userSpaceOnUse" /><linearGradient
       inkscape:collect="always"
       xlink:href="#linearGradient7378"
       id="linearGradient7388"
       x1="102.08337"
       y1="88.321991"
       x2="114.53464"
       y2="88.321991"
       gradientUnits="userSpaceOnUse" /><linearGradient
       inkscape:collect="always"
       xlink:href="#linearGradient8261"
       id="linearGradient8263"
       x1="124.34895"
       y1="69.334076"
       x2="127.78138"
       y2="69.334076"
       gradientUnits="userSpaceOnUse" /><linearGradient
       inkscape:collect="always"
       xlink:href="#linearGradient8261"
       id="linearGradient8265"
       x1="130.00078"
       y1="69.334076"
       x2="133.43321"
       y2="69.334076"
       gradientUnits="userSpaceOnUse" /><linearGradient
       inkscape:collect="always"
       xlink:href="#linearGradient8261"
       id="linearGradient8267"
       x1="135.65256"
       y1="69.334076"
       x2="139.08499"
       y2="69.334076"
       gradientUnits="userSpaceOnUse" /></defs><g
     inkscape:label="Layer 1"
     inkscape:groupmode="layer"
     id="layer1"
     transform="translate(-69.964922,-62.914545)"><g
       id="g13396"><g
         id="g13382"><path
           style="opacity:0.374074;fill:none;stroke:#000000;stroke-width:0.326801;stroke-linecap:round;stroke-linejoin:round;stroke-opacity:1"
           d="m 88.660429,111.59358 28.937911,0.0459 c 2.58374,0 3.44246,-1.46691 3.44246,-3.66249 l 0.0727,-21.734616 c 0,-2.12361 -1.14995,-3.23428 -3.40249,-3.23428 l -44.590907,-0.0265 c -1.780546,0 -2.984476,1.13498 -2.984476,2.96845 l -0.0073,22.756776 c 0,1.55963 1.576675,2.92919 3.373934,2.92919 l 5.227241,-0.0286 c 1.032069,0 1.057128,0.004 0.947306,1.19716 l -0.294297,3.66863 c 0,0.51712 0.315761,0.59944 0.709063,0.37236 l 7.606326,-5.00709 c 0.369523,-0.23675 0.395342,-0.24491 0.962526,-0.24491 z"
           id="path2821"
           sodipodi:nodetypes="cccccccccccccccc" /><path
           id="path4085-4-9-3"
           style="opacity:0.374074;fill:url(#linearGradient7380);fill-opacity:1;stroke:#000000;stroke-width:0.136073;stroke-linecap:round;stroke-linejoin:round;stroke-opacity:1"
           d="m 113.37553,97.22705 c 0.64016,0 1.15911,-0.51895 1.15911,-1.159105 0,-0.640156 -0.51895,-1.159105 -1.15911,-1.159105 H 76.277458 c -0.640156,0 -1.159105,0.518949 -1.159105,1.159105 0,0.640155 0.518949,1.159105 1.159105,1.159105 z"
           sodipodi:nodetypes="csccscc" /><path
           id="path4085-4-9-3-65"
           style="opacity:0.374074;fill:url(#linearGradient7386);fill-opacity:1;stroke:#000000;stroke-width:0.136073;stroke-linecap:round;stroke-linejoin:round;stroke-opacity:1"
           d="m 99.110505,89.481097 c 0.64016,0 1.159105,-0.51895 1.159105,-1.159105 0,-0.640156 -0.518945,-1.159105 -1.159105,-1.159105 H 76.277458 c -0.640156,0 -1.159105,0.518949 -1.159105,1.159105 0,0.640155 0.518949,1.159105 1.159105,1.159105 z"
           sodipodi:nodetypes="csccscc" /><path
           id="path4085-4-9-3-65-7"
           style="opacity:0.374074;fill:url(#linearGradient7388);fill-opacity:1;stroke:#000000;stroke-width:0.136073;stroke-linecap:round;stroke-linejoin:round;stroke-opacity:1"
           d="m 113.37553,89.481097 c 0.64016,0 1.15911,-0.51895 1.15911,-1.159105 0,-0.640156 -0.51895,-1.159105 -1.15911,-1.159105 h -10.13305 c -0.64016,0 -1.15911,0.518949 -1.15911,1.159105 0,0.640155 0.51895,1.159105 1.15911,1.159105 z"
           sodipodi:nodetypes="csccscc" /><path
           id="path4085-4-9-3-6"
           style="opacity:0.374074;fill:url(#linearGradient7384);fill-opacity:1;stroke:#000000;stroke-width:0.136073;stroke-linecap:round;stroke-linejoin:round;stroke-opacity:1"
           d="m 113.37553,106.36899 c 0.64016,0 1.15911,-0.51896 1.15911,-1.15912 0,-0.64016 -0.51895,-1.15911 -1.15911,-1.15911 H 76.277457 c -0.640156,0 -1.159105,0.51895 -1.159105,1.15911 0,0.64016 0.518949,1.15912 1.159105,1.15912 z"
           sodipodi:nodetypes="csccscc" /><path
           id="path4085-4-9-3-0"
           style="opacity:0.374074;fill:url(#linearGradient7382);fill-opacity:1;stroke:#000000;stroke-width:0.136073;stroke-linecap:round;stroke-linejoin:round;stroke-opacity:1"
           d="m 113.37553,101.79801 c 0.64016,0 1.15911,-0.51895 1.15911,-1.15911 0,-0.640157 -0.51895,-1.159107 -1.15911,-1.159107 H 76.277457 c -0.640156,0 -1.159105,0.51895 -1.159105,1.159107 0,0.64016 0.518949,1.15911 1.159105,1.15911 z"
           sodipodi:nodetypes="csccscc" /></g><g
         id="g13374"><path
           style="opacity:0.374074;fill:none;stroke:#000000;stroke-width:0.261678;stroke-linecap:round;stroke-linejoin:round;stroke-opacity:1"
           d="M 131.98544,76.04525 119.51115,76.082 c -2.06887,0 -2.75647,-1.174593 -2.75647,-2.93265 l -0.0582,-7.492975 c 0,-1.700428 0.92079,-2.58977 2.72446,-2.58977 l 25.00804,-0.02122 c 1.42573,0 2.38975,0.908808 2.38975,2.376914 l 0.006,8.311445 c 0,1.248835 -1.26249,2.345477 -2.7016,2.345477 l -4.18558,-0.0229 c -0.82641,0 -0.84647,0.0032 -0.75854,0.958597 l 0.23566,2.937566 c 0,0.414071 -0.25284,0.479987 -0.56777,0.298158 l -6.09058,-4.009305 c -0.29588,-0.189572 -0.31656,-0.196106 -0.77072,-0.196106 z"
           id="path2821-0"
           sodipodi:nodetypes="cccccccccccccccc" /><circle
           style="opacity:0.374074;fill:url(#linearGradient8263);fill-opacity:1;stroke:#000000;stroke-width:0.10272;stroke-linecap:round;stroke-linejoin:round;stroke-dasharray:none;stroke-opacity:1"
           id="path6200"
           cx="126.06516"
           cy="69.334076"
           r="1.716215" /><circle
           style="opacity:0.374074;fill:url(#linearGradient8265);fill-opacity:1;stroke:#000000;stroke-width:0.10272;stroke-linecap:round;stroke-linejoin:round;stroke-dasharray:none;stroke-opacity:1"
           id="path6200-0"
           cx="131.717"
           cy="69.334076"
           r="1.716215" /><circle
           style="opacity:0.374074;fill:url(#linearGradient8267);fill-opacity:1;stroke:#000000;stroke-width:0.10272;stroke-linecap:round;stroke-linejoin:round;stroke-dasharray:none;stroke-opacity:1"
           id="path6200-2"
           cx="137.36877"
           cy="69.334076"
           r="1.716215" /></g></g></g></svg>
